<svg xmlns="http://www.w3.org/2000/svg" viewBox="0 0 1440 320"><path fill="#1be533" fill-opacity="1" d="M0,128L9.2,144C18.5,160,37,192,55,181.3C73.8,171,92,117,111,101.3C129.2,85,148,107,166,149.3C184.6,192,203,256,222,250.7C240,245,258,171,277,144C295.4,117,314,139,332,176C350.8,213,369,267,388,245.3C406.2,224,425,128,443,106.7C461.5,85,480,139,498,181.3C516.9,224,535,256,554,250.7C572.3,245,591,203,609,202.7C627.7,203,646,245,665,266.7C683.1,288,702,288,720,256C738.5,224,757,160,775,149.3C793.8,139,812,181,831,181.3C849.2,181,868,139,886,106.7C904.6,75,923,53,942,80C960,107,978,181,997,197.3C1015.4,213,1034,171,1052,154.7C1070.8,139,1089,149,1108,149.3C1126.2,149,1145,139,1163,160C1181.5,181,1200,235,1218,250.7C1236.9,267,1255,245,1274,234.7C1292.3,224,1311,224,1329,186.7C1347.7,149,1366,75,1385,64C1403.1,53,1422,107,1431,133.3L1440,160L1440,320L1430.8,320C1421.5,320,1403,320,1385,320C1366.2,320,1348,320,1329,320C1310.8,320,1292,320,1274,320C1255.4,320,1237,320,1218,320C1200,320,1182,320,1163,320C1144.6,320,1126,320,1108,320C1089.2,320,1071,320,1052,320C1033.8,320,1015,320,997,320C978.5,320,960,320,942,320C923.1,320,905,320,886,320C867.7,320,849,320,831,320C812.3,320,794,320,775,320C756.9,320,738,320,720,320C701.5,320,683,320,665,320C646.2,320,628,320,609,320C590.8,320,572,320,554,320C535.4,320,517,320,498,320C480,320,462,320,443,320C424.6,320,406,320,388,320C369.2,320,351,320,332,320C313.8,320,295,320,277,320C258.5,320,240,320,222,320C203.1,320,185,320,166,320C147.7,320,129,320,111,320C92.3,320,74,320,55,320C36.9,320,18,320,9,320L0,320Z"></path></svg>
