<svg xmlns="http://www.w3.org/2000/svg" viewBox="0 0 1440 320"><path fill="#1be533" fill-opacity="1" d="M0,288L9.6,288C19.2,288,38,288,58,240C76.8,192,96,96,115,58.7C134.4,21,154,43,173,64C192,85,211,107,230,106.7C249.6,107,269,85,288,106.7C307.2,128,326,192,346,229.3C364.8,267,384,277,403,266.7C422.4,256,442,224,461,197.3C480,171,499,149,518,149.3C537.6,149,557,171,576,176C595.2,181,614,171,634,160C652.8,149,672,139,691,122.7C710.4,107,730,85,749,80C768,75,787,85,806,128C825.6,171,845,245,864,272C883.2,299,902,277,922,224C940.8,171,960,85,979,69.3C998.4,53,1018,107,1037,138.7C1056,171,1075,181,1094,165.3C1113.6,149,1133,107,1152,112C1171.2,117,1190,171,1210,213.3C1228.8,256,1248,288,1267,304C1286.4,320,1306,320,1325,266.7C1344,213,1363,107,1382,90.7C1401.6,75,1421,149,1430,186.7L1440,224L1440,0L1430.4,0C1420.8,0,1402,0,1382,0C1363.2,0,1344,0,1325,0C1305.6,0,1286,0,1267,0C1248,0,1229,0,1210,0C1190.4,0,1171,0,1152,0C1132.8,0,1114,0,1094,0C1075.2,0,1056,0,1037,0C1017.6,0,998,0,979,0C960,0,941,0,922,0C902.4,0,883,0,864,0C844.8,0,826,0,806,0C787.2,0,768,0,749,0C729.6,0,710,0,691,0C672,0,653,0,634,0C614.4,0,595,0,576,0C556.8,0,538,0,518,0C499.2,0,480,0,461,0C441.6,0,422,0,403,0C384,0,365,0,346,0C326.4,0,307,0,288,0C268.8,0,250,0,230,0C211.2,0,192,0,173,0C153.6,0,134,0,115,0C96,0,77,0,58,0C38.4,0,19,0,10,0L0,0Z"></path></svg>